<svg width="459" height="114" viewBox="0 0 459 114" fill="none" xmlns="http://www.w3.org/2000/svg">
<path d="M177.456 36.92C180.403 36.92 183.032 37.532 185.344 38.756C187.701 39.98 189.537 41.7933 190.852 44.196C192.212 46.5987 192.892 49.5 192.892 52.9V75H185.208V54.056C185.208 50.7013 184.369 48.14 182.692 46.372C181.015 44.5587 178.725 43.652 175.824 43.652C172.923 43.652 170.611 44.5587 168.888 46.372C167.211 48.14 166.372 50.7013 166.372 54.056V75H158.688V54.056C158.688 50.7013 157.849 48.14 156.172 46.372C154.495 44.5587 152.205 43.652 149.304 43.652C146.403 43.652 144.091 44.5587 142.368 46.372C140.691 48.14 139.852 50.7013 139.852 54.056V75H132.1V37.532H139.852V41.816C141.121 40.2747 142.731 39.0733 144.68 38.212C146.629 37.3507 148.715 36.92 150.936 36.92C153.928 36.92 156.603 37.5547 158.96 38.824C161.317 40.0933 163.131 41.9293 164.4 44.332C165.533 42.0653 167.301 40.2747 169.704 38.96C172.107 37.6 174.691 36.92 177.456 36.92ZM222.748 75.612C219.212 75.612 216.016 74.8187 213.16 73.232C210.304 71.6 208.06 69.3333 206.428 66.432C204.796 63.4853 203.98 60.0853 203.98 56.232C203.98 52.424 204.819 49.0467 206.496 46.1C208.174 43.1533 210.463 40.8867 213.364 39.3C216.266 37.7133 219.507 36.92 223.088 36.92C226.67 36.92 229.911 37.7133 232.812 39.3C235.714 40.8867 238.003 43.1533 239.68 46.1C241.358 49.0467 242.196 52.424 242.196 56.232C242.196 60.04 241.335 63.4173 239.612 66.364C237.89 69.3107 235.532 71.6 232.54 73.232C229.594 74.8187 226.33 75.612 222.748 75.612ZM222.748 68.88C224.743 68.88 226.602 68.404 228.324 67.452C230.092 66.5 231.52 65.072 232.608 63.168C233.696 61.264 234.24 58.952 234.24 56.232C234.24 53.512 233.719 51.2227 232.676 49.364C231.634 47.46 230.251 46.032 228.528 45.08C226.806 44.128 224.947 43.652 222.952 43.652C220.958 43.652 219.099 44.128 217.376 45.08C215.699 46.032 214.362 47.46 213.364 49.364C212.367 51.2227 211.868 53.512 211.868 56.232C211.868 60.2667 212.888 63.3947 214.928 65.616C217.014 67.792 219.62 68.88 222.748 68.88ZM272.504 36.92C275.45 36.92 278.08 37.532 280.392 38.756C282.749 39.98 284.585 41.7933 285.9 44.196C287.214 46.5987 287.872 49.5 287.872 52.9V75H280.188V54.056C280.188 50.7013 279.349 48.14 277.672 46.372C275.994 44.5587 273.705 43.652 270.804 43.652C267.902 43.652 265.59 44.5587 263.868 46.372C262.19 48.14 261.352 50.7013 261.352 54.056V75H253.6V37.532H261.352V41.816C262.621 40.2747 264.23 39.0733 266.18 38.212C268.174 37.3507 270.282 36.92 272.504 36.92ZM315.1 75.612C312.153 75.612 309.501 75.0907 307.144 74.048C304.832 72.96 302.996 71.5093 301.636 69.696C300.276 67.8373 299.55 65.7747 299.46 63.508H307.484C307.62 65.0947 308.368 66.432 309.728 67.52C311.133 68.5627 312.878 69.084 314.964 69.084C317.14 69.084 318.817 68.676 319.996 67.86C321.22 66.9987 321.832 65.9107 321.832 64.596C321.832 63.1907 321.152 62.148 319.792 61.468C318.477 60.788 316.369 60.04 313.468 59.224C310.657 58.4533 308.368 57.7053 306.6 56.98C304.832 56.2547 303.29 55.144 301.976 53.648C300.706 52.152 300.072 50.18 300.072 47.732C300.072 45.7373 300.661 43.924 301.84 42.292C303.018 40.6147 304.696 39.3 306.872 38.348C309.093 37.396 311.632 36.92 314.488 36.92C318.749 36.92 322.172 38.008 324.756 40.184C327.385 42.3147 328.79 45.2387 328.972 48.956H321.22C321.084 47.2787 320.404 45.9413 319.18 44.944C317.956 43.9467 316.301 43.448 314.216 43.448C312.176 43.448 310.612 43.8333 309.524 44.604C308.436 45.3747 307.892 46.3947 307.892 47.664C307.892 48.6613 308.254 49.5 308.98 50.18C309.705 50.86 310.589 51.404 311.632 51.812C312.674 52.1747 314.216 52.6507 316.256 53.24C318.976 53.9653 321.197 54.7133 322.92 55.484C324.688 56.2093 326.206 57.2973 327.476 58.748C328.745 60.1987 329.402 62.1253 329.448 64.528C329.448 66.6587 328.858 68.5627 327.68 70.24C326.501 71.9173 324.824 73.232 322.648 74.184C320.517 75.136 318.001 75.612 315.1 75.612ZM349.316 43.108C350.631 41.2947 352.421 39.8213 354.688 38.688C357 37.5093 359.561 36.92 362.372 36.92C365.681 36.92 368.673 37.7133 371.348 39.3C374.023 40.8867 376.131 43.1533 377.672 46.1C379.213 49.0013 379.984 52.3333 379.984 56.096C379.984 59.8587 379.213 63.236 377.672 66.228C376.131 69.1747 374 71.4867 371.28 73.164C368.605 74.796 365.636 75.612 362.372 75.612C359.471 75.612 356.887 75.0453 354.62 73.912C352.399 72.7787 350.631 71.328 349.316 69.56V75H341.564V24.68H349.316V43.108ZM372.096 56.096C372.096 53.512 371.552 51.2907 370.464 49.432C369.421 47.528 368.016 46.1 366.248 45.148C364.525 44.1507 362.667 43.652 360.672 43.652C358.723 43.652 356.864 44.1507 355.096 45.148C353.373 46.1453 351.968 47.596 350.88 49.5C349.837 51.404 349.316 53.648 349.316 56.232C349.316 58.816 349.837 61.0827 350.88 63.032C351.968 64.936 353.373 66.3867 355.096 67.384C356.864 68.3813 358.723 68.88 360.672 68.88C362.667 68.88 364.525 68.3813 366.248 67.384C368.016 66.3413 369.421 64.8453 370.464 62.896C371.552 60.9467 372.096 58.68 372.096 56.096ZM399.142 24.68V75H391.39V24.68H399.142ZM446.992 37.532V75H439.24V70.58C438.016 72.1213 436.406 73.3453 434.412 74.252C432.462 75.1133 430.377 75.544 428.156 75.544C425.209 75.544 422.557 74.932 420.2 73.708C417.888 72.484 416.052 70.6707 414.692 68.268C413.377 65.8653 412.72 62.964 412.72 59.564V37.532H420.404V58.408C420.404 61.7627 421.242 64.3467 422.92 66.16C424.597 67.928 426.886 68.812 429.788 68.812C432.689 68.812 434.978 67.928 436.656 66.16C438.378 64.3467 439.24 61.7627 439.24 58.408V37.532H446.992Z" fill="#151219"/>
<path d="M41.194 0.0196099C17.9297 0.715633 0 21.1163 0 44.5286V103.31C0 106.483 3.82943 108.07 6.04297 105.815L11.5658 101.696C13.0322 100.582 15.1074 100.805 16.3249 102.197L25.8431 112.953C27.2266 114.345 29.4667 114.345 30.8501 112.953L39.8415 102.753C41.2527 101.139 43.7418 101.139 45.154 102.753L54.1477 112.953C55.5311 114.345 57.7734 114.345 59.1547 112.953L68.6729 102.197C69.8904 100.805 71.9667 100.582 73.432 101.696L78.9548 105.815C81.1684 108.07 84.9978 106.483 84.9978 103.31V42.7466C85 18.6953 65.2773 -0.704067 41.194 0.0196099ZM28.3333 49.8716C24.4331 49.8716 21.4492 46.6698 21.4492 42.7444C21.4492 38.819 24.6323 35.6172 28.3333 35.6172C32.0344 35.6172 35.4167 38.819 35.4167 42.7444C35.4167 46.6698 32.2292 49.8716 28.3333 49.8716ZM56.6667 49.8716C52.7664 49.8716 49.5833 46.6698 49.5833 42.7444C49.5833 38.819 52.7664 35.6172 56.6667 35.6172C60.5669 35.6172 63.75 38.819 63.75 42.7444C63.75 46.6698 60.5625 49.8716 56.6667 49.8716Z" fill="#250953"/>
</svg>
